<?xml version="1.0" standalone="no"?>
<!DOCTYPE svg PUBLIC "-//W3C//DTD SVG 20010904//EN"
 "http://www.w3.org/TR/2001/REC-SVG-20010904/DTD/svg10.dtd">
<svg version="1.0" xmlns="http://www.w3.org/2000/svg"
 width="562.000000pt" height="562.000000pt" viewBox="0 0 562.000000 562.000000"
 preserveAspectRatio="xMidYMid meet">
<metadata>
Created by potrace 1.11, written by Peter Selinger 2001-2013
</metadata>
<g transform="translate(0.000000,562.000000) scale(0.100000,-0.100000)"
fill="#000000" stroke="none">
<path d="M1115 5580 c-55 -10 -128 -27 -161 -38 -67 -22 -166 -63 -174 -71 -3
-4 -10 -7 -17 -8 -17 -4 -117 -65 -121 -75 -2 -4 -8 -8 -13 -8 -20 0 -166
-125 -228 -196 -75 -85 -150 -193 -196 -284 -31 -62 -83 -195 -90 -233 -2 -10
-7 -27 -10 -37 -7 -23 -11 -42 -22 -111 -10 -69 -11 -3348 0 -3414 15 -91 34
-169 57 -230 5 -11 14 -36 21 -55 17 -48 89 -189 111 -220 149 -201 208 -260
363 -365 197 -132 396 -199 629 -211 54 -2 102 -7 107 -10 5 -3 9 -2 9 3 0 9
67 9 76 0 3 -3 18 -2 32 2 15 5 35 5 46 1 10 -3 40 -3 66 0 25 3 59 3 73 -1
15 -4 27 -4 27 -1 0 8 68 7 76 -1 3 -3 18 -2 32 2 15 5 36 5 46 1 11 -4 36 -4
55 0 20 3 50 3 67 0 16 -4 39 -4 50 0 10 4 31 4 47 -1 15 -4 27 -5 27 -1 0 8
67 8 75 1 2 -3 31 -2 65 1 33 3 60 3 60 -1 0 -3 18 -3 40 1 22 4 40 4 40 0 0
-4 15 -5 33 -1 18 5 41 5 52 1 11 -4 24 -5 29 -2 13 7 76 8 76 1 0 -4 15 -3
34 1 19 4 39 4 45 1 6 -4 38 -4 71 -1 33 3 60 3 60 -1 0 -3 18 -3 40 1 22 4
40 4 40 -1 0 -5 10 -5 22 0 12 4 36 5 53 1 17 -4 39 -4 50 0 11 4 32 4 48 -1
15 -4 27 -5 27 -1 0 8 68 8 75 0 2 -2 29 -1 58 2 30 3 66 3 81 -1 14 -4 26 -4
26 -1 0 8 68 7 76 -1 3 -3 18 -2 32 2 15 5 35 5 46 1 10 -3 40 -3 66 0 25 3
59 3 73 -1 15 -4 27 -4 27 -1 0 8 68 7 76 -1 3 -3 18 -2 32 2 15 5 36 5 46 1
11 -4 36 -4 55 0 20 3 50 3 67 0 16 -4 39 -4 50 0 10 4 31 4 47 -1 15 -4 27
-5 27 -1 0 8 67 8 75 1 2 -3 31 -2 65 1 33 3 60 3 60 -1 0 -3 18 -3 40 1 22 4
40 4 40 0 0 -4 15 -5 33 -1 18 5 41 5 52 1 11 -4 24 -5 29 -2 13 7 76 8 76 1
0 -4 15 -3 34 1 19 4 39 4 45 1 6 -4 38 -4 71 -1 33 3 60 3 60 -1 0 -3 18 -3
40 1 22 4 40 4 40 -1 0 -5 10 -5 22 0 12 4 36 5 53 1 17 -4 39 -4 50 0 11 4
32 4 48 -1 15 -4 27 -5 27 -1 0 8 68 8 75 0 3 -3 24 -2 48 2 23 3 56 3 73 0
16 -4 39 -4 50 0 10 4 31 4 47 -1 15 -4 27 -5 27 -1 0 8 67 8 75 1 2 -3 31 -2
65 1 33 3 60 2 60 -3 0 -4 6 -5 13 0 6 4 20 6 30 5 14 -3 17 5 18 50 1 29 0
58 -1 63 -1 6 -1 48 0 95 0 47 1 94 0 105 -1 11 -1 27 -1 35 0 8 0 94 0 190
-1 96 -1 180 -1 185 0 6 1 26 1 45 1 19 1 44 0 55 0 29 -1 527 0 545 2 64 1
113 -2 116 -2 2 -30 -5 -63 -17 -32 -11 -66 -22 -74 -24 -8 -2 -51 -12 -95
-23 -130 -33 -188 -31 -198 8 -3 10 2 28 10 39 8 12 12 21 9 21 -3 0 -41 -16
-85 -35 -43 -19 -82 -35 -84 -35 -3 0 -18 -5 -34 -12 -15 -6 -30 -12 -33 -13
-3 -1 -12 -5 -20 -8 -8 -4 -80 -30 -160 -57 -333 -117 -516 -135 -536 -54 -8
30 14 68 78 136 58 61 207 224 223 242 6 7 21 25 35 41 29 32 13 25 -45 -20
-67 -53 -247 -161 -400 -240 -80 -41 -146 -75 -147 -74 -2 0 -34 -14 -73 -31
-161 -73 -448 -177 -570 -206 -5 -1 -32 -8 -60 -14 -27 -7 -85 -13 -127 -15
-64 -2 -80 0 -94 16 -38 42 5 93 217 260 147 116 207 168 329 284 74 70 202
205 265 280 33 39 62 72 65 75 15 14 71 90 67 90 -3 0 -18 -12 -34 -27 -62
-61 -247 -213 -258 -213 -3 0 -13 -6 -20 -12 -30 -27 -44 -36 -151 -101 -61
-37 -116 -67 -122 -67 -7 0 -12 -5 -12 -12 0 -6 -3 -8 -6 -5 -4 3 -25 -5 -48
-18 -83 -49 -422 -174 -568 -211 -30 -7 -51 -13 -108 -28 -54 -16 -116 -28
-215 -43 -83 -13 -375 -9 -422 5 -51 15 -85 48 -77 74 6 20 39 55 70 75 34 22
167 90 229 116 156 66 629 298 645 317 3 4 14 10 25 14 52 19 580 346 632 391
6 5 37 27 68 49 31 21 55 40 53 41 -2 2 -46 -18 -98 -44 -52 -26 -117 -56
-145 -66 -27 -10 -55 -22 -60 -26 -24 -18 -389 -132 -495 -154 -8 -2 -58 -13
-110 -24 -52 -12 -133 -28 -180 -36 -47 -8 -96 -17 -109 -20 -13 -2 -49 -7
-80 -10 -31 -4 -69 -8 -86 -10 -35 -5 -106 -13 -172 -20 -63 -7 -279 -7 -323
-1 -19 3 -57 8 -85 11 -122 15 -287 78 -331 126 -22 24 -21 65 2 91 31 35 90
55 360 123 143 36 266 67 274 70 8 2 51 13 95 25 44 12 125 35 180 51 168 50
299 90 315 97 8 3 17 6 20 7 3 0 30 9 60 20 30 10 60 20 66 21 11 2 143 48
329 115 60 22 115 45 122 51 7 6 13 8 13 5 0 -6 36 8 155 58 17 7 41 16 55 20
25 8 70 35 58 35 -4 0 -19 -5 -35 -11 -15 -6 -35 -12 -44 -14 -8 -2 -44 -10
-80 -19 -84 -21 -159 -37 -249 -51 -19 -3 -42 -8 -50 -10 -8 -2 -39 -7 -69
-10 -30 -4 -61 -8 -70 -10 -9 -1 -50 -6 -91 -10 -41 -4 -88 -9 -105 -11 -101
-13 -260 -18 -560 -18 -367 0 -406 2 -620 39 -11 1 -49 10 -85 19 -277 71
-500 196 -544 307 -41 101 51 148 279 143 175 -4 631 -4 770 1 194 6 501 26
615 39 25 3 72 8 105 11 33 3 71 7 85 9 14 2 52 7 85 11 33 4 78 10 100 15 39
7 38 8 -20 9 -92 2 -247 16 -297 27 -13 3 -32 6 -43 8 -11 2 -29 6 -40 9 -11
3 -31 8 -45 11 -39 7 -99 22 -175 45 -38 12 -75 23 -82 24 -7 2 -16 6 -19 10
-4 4 -14 7 -22 7 -8 0 -28 6 -45 14 -18 8 -63 27 -102 41 -83 32 -326 150
-406 197 -199 117 -299 222 -312 328 -10 89 51 121 178 92 86 -19 78 -17 220
-65 113 -39 359 -107 435 -120 14 -3 43 -8 65 -13 22 -4 49 -9 60 -10 11 -1
20 -3 20 -4 0 -4 156 -29 213 -35 23 -2 46 -6 50 -9 4 -2 41 -7 82 -11 41 -3
87 -8 101 -10 14 -3 54 -7 90 -10 35 -3 80 -7 99 -10 19 -2 76 -7 125 -10 50
-3 128 -8 175 -11 327 -20 1000 -20 1376 1 209 12 294 17 349 21 33 2 89 6
125 9 62 4 113 8 260 21 36 3 83 8 105 11 39 5 81 10 118 12 13 1 17 9 17 34
-1 26 -2 529 -2 562 2 61 2 83 1 100 -1 65 -1 535 1 560 1 17 2 37 1 45 -1 19
-1 109 0 118 1 4 1 49 0 100 l-1 92 -2172 -1 c-2059 -1 -2178 -2 -2273 -19z"/>
<path d="M3650 2479 c0 -5 5 -7 10 -4 6 3 10 8 10 11 0 2 -4 4 -10 4 -5 0 -10
-5 -10 -11z"/>
</g>
</svg>
